<?xml version="1.0" encoding="UTF-8"?><svg xmlns="http://www.w3.org/2000/svg" xmlns:xlink="http://www.w3.org/1999/xlink" height="19.2" preserveAspectRatio="xMidYMid meet" version="1.0" viewBox="5.6 240.4 488.9 19.2" width="488.9" zoomAndPan="magnify"><g id="change1_1"><path clip-rule="evenodd" d="M244.1,248.3c2.9-1.9,5.1-4.7,6.3-7.9c0,0,0,0,0,0s0,0,0,0 c1.2,3.3,3.4,6,6.3,7.9c22.5,0,45,0,66.6,0c16.9,0,33.3,0,48.9,0.1c12.9,0.1,25.2,0.2,36.7,0.3c16.1,0.2,30.5,0.4,42.8,0.6 c26.5,0.4,42.8,0.7,42.8,0.7s-16.2,0.3-42.8,0.7c-12.3,0.2-26.7,0.4-42.8,0.6c-11.5,0.1-23.8,0.2-36.7,0.3 c-15.5,0.1-31.9,0.1-48.9,0.1c-21.6,0-44.1,0-66.6,0c-2.9,1.9-5.1,4.7-6.3,7.9h0c-1.2-3.3-3.4-6-6.3-7.9c-22.8,0-45.5,0-67.4,0 c-16.9,0-33.3-0.1-48.9-0.1c-10.6-0.1-20.9-0.1-30.5-0.2c-10.9-0.1-21.2-0.2-30.5-0.4C29.5,250.4,5.6,250,5.6,250 s23.9-0.4,61.1-0.9c9.4-0.1,19.6-0.3,30.5-0.4c9.7-0.1,19.9-0.2,30.5-0.2c15.5-0.1,31.9-0.1,48.9-0.1 C198.6,248.3,221.3,248.3,244.1,248.3z" fill="#FFF4D4" fill-rule="evenodd"/></g></svg>